<?xml version="1.0" encoding="iso-8859-1"?>
<!-- Generator: Adobe Illustrator 19.0.0, SVG Export Plug-In . SVG Version: 6.00 Build 0)  -->
<svg version="1.1" id="Layer_1" xmlns="http://www.w3.org/2000/svg" xmlns:xlink="http://www.w3.org/1999/xlink" x="0px" y="0px"
	 viewBox="0 0 512 512" style="enable-background:new 0 0 512 512;" xml:space="preserve" fill="#e69237">
<g>
	<g>
		<path d="M256,0C114.615,0,0,114.615,0,256s114.615,256,256,256c141.386,0,256-114.615,256-256S397.386,0,256,0z M179.371,95.342
			l31.845,24.895c-32.49,41.56-74.344,76.389-121.033,100.725l-18.683-35.845C113.109,163.43,150.411,132.386,179.371,95.342z
			 M122.898,341.747c-15.784,15.784-41.379,15.784-57.163-0.001c-15.787-15.784-15.786-41.379-0.001-57.163L94.316,256
			l28.582,28.582C138.683,300.367,138.682,325.961,122.898,341.747z M195.368,222.316c14.862,0,26.947,12.089,26.947,26.947
			c-0.005,14.861-12.094,26.947-26.947,26.947c-14.859,0-26.947-12.089-26.947-26.947S180.51,222.316,195.368,222.316z
			 M304.133,410.412c-8.422-26.124-24.616-39.369-48.133-39.369c-23.442,0-39.215,12.963-48.22,39.632l-38.298-12.932
			c7.687-22.761,19.829-40.148,36.093-51.676c14.256-10.105,31.693-15.446,50.424-15.446c41.231,0,72.796,24.561,86.603,67.385
			L304.133,410.412z M316.632,276.211c-14.859,0-26.947-12.089-26.947-26.947s12.089-26.947,26.947-26.947
			c14.861,0,26.947,12.089,26.947,26.947C343.574,264.125,331.485,276.211,316.632,276.211z M421.817,220.962
			c-46.689-24.336-88.542-59.166-121.033-100.725l31.845-24.895c28.962,37.043,66.262,68.088,107.872,89.775L421.817,220.962z"/>
	</g>
</g>
<g>
</g>
<g>
</g>
<g>
</g>
<g>
</g>
<g>
</g>
<g>
</g>
<g>
</g>
<g>
</g>
<g>
</g>
<g>
</g>
<g>
</g>
<g>
</g>
<g>
</g>
<g>
</g>
<g>
</g>
</svg>
